<svg width="667" height="667" viewBox="0 0 667 667" fill="none" xmlns="http://www.w3.org/2000/svg">
<path d="M78 334C78 123.184 123.184 78 334 78C544.816 78 590 123.184 590 334C590 544.816 544.816 590 334 590C123.184 590 78 544.816 78 334Z" fill="white"/>
<g opacity="0.41">
<g filter="url(#filter0_f_6_38)">
<path d="M327.774 328.968C266.471 403.391 361.498 454.289 296.783 454.289C232.068 454.289 179.606 401.827 179.606 337.112C179.606 272.397 232.068 219.935 296.783 219.935C361.498 219.935 265.792 244.818 327.774 328.968Z" fill="#3A6BDC"/>
<path d="M487.478 330.778C487.478 395.493 435.016 447.955 370.301 447.955C305.586 447.955 428.982 394.343 328 330.778C404.099 262.01 305.586 213.601 370.301 213.601C435.016 213.601 487.478 266.063 487.478 330.778Z" fill="#BB2649"/>
</g>
<g filter="url(#filter1_f_6_38)">
<path d="M328.565 339.713C402.988 401.016 453.886 305.989 453.886 370.704C453.886 435.419 401.424 487.881 336.709 487.881C271.994 487.881 219.532 435.419 219.532 370.704C219.532 305.989 244.415 401.695 328.565 339.713Z" fill="#3A6BDC"/>
<path d="M330.375 180.009C395.09 180.009 447.552 232.471 447.552 297.186C447.552 361.901 393.94 238.505 330.375 339.487C261.607 263.388 213.198 361.901 213.198 297.186C213.198 232.471 265.66 180.009 330.375 180.009Z" fill="#BB2649"/>
</g>
<g filter="url(#filter2_f_6_38)">
<path d="M325.945 334.505C335.222 430.477 438.406 399.273 392.646 445.033C346.885 490.794 272.693 490.794 226.933 445.033C181.172 399.273 181.172 325.081 226.933 279.32C272.693 233.56 222.614 318.829 325.945 334.505Z" fill="#3A6BDC"/>
<path d="M440.152 222.856C485.912 268.617 485.912 342.809 440.152 388.569C394.392 434.33 443.736 309.167 327.384 335.624C332.568 233.188 228.679 268.617 274.439 222.856C320.199 177.096 394.392 177.096 440.152 222.856Z" fill="#BB2649"/>
</g>
</g>
<mask id="mask0_6_38" style="mask-type:alpha" maskUnits="userSpaceOnUse" x="189" y="157" width="290" height="353">
<path d="M334 205.667L238 333.667H430L334 461.667" stroke="white" stroke-opacity="0.8" stroke-width="96" stroke-linecap="round" stroke-linejoin="round"/>
</mask>
<g mask="url(#mask0_6_38)">
<g filter="url(#filter3_f_6_38)">
<path d="M327.774 328.968C266.471 403.391 361.498 454.289 296.783 454.289C232.068 454.289 179.606 401.827 179.606 337.112C179.606 272.397 232.068 219.935 296.783 219.935C361.498 219.935 265.792 244.818 327.774 328.968Z" fill="#3A6BDC"/>
<path d="M487.478 330.778C487.478 395.493 435.016 447.955 370.301 447.955C305.586 447.955 428.982 394.343 328 330.778C404.099 262.01 305.586 213.601 370.301 213.601C435.016 213.601 487.478 266.063 487.478 330.778Z" fill="#BB2649"/>
</g>
<g filter="url(#filter4_f_6_38)">
<path d="M328.565 339.713C402.988 401.016 453.886 305.989 453.886 370.704C453.886 435.419 401.424 487.881 336.709 487.881C271.994 487.881 219.532 435.419 219.532 370.704C219.532 305.989 244.415 401.695 328.565 339.713Z" fill="#3A6BDC"/>
<path d="M330.375 180.009C395.09 180.009 447.552 232.471 447.552 297.186C447.552 361.901 393.94 238.505 330.375 339.487C261.607 263.388 213.198 361.901 213.198 297.186C213.198 232.471 265.66 180.009 330.375 180.009Z" fill="#BB2649"/>
</g>
<g filter="url(#filter5_f_6_38)">
<path d="M325.945 334.505C335.222 430.477 438.406 399.273 392.646 445.033C346.885 490.794 272.693 490.794 226.933 445.033C181.172 399.273 181.172 325.081 226.933 279.32C272.693 233.56 222.614 318.829 325.945 334.505Z" fill="#3A6BDC"/>
<path d="M440.152 222.856C485.912 268.617 485.912 342.809 440.152 388.569C394.392 434.33 443.736 309.167 327.384 335.624C332.568 233.188 228.679 268.617 274.439 222.856C320.199 177.096 394.392 177.096 440.152 222.856Z" fill="#BB2649"/>
</g>
</g>
<defs>
<filter id="filter0_f_6_38" x="0.58905" y="34.5838" width="665.906" height="598.722" filterUnits="userSpaceOnUse" color-interpolation-filters="sRGB">
<feFlood flood-opacity="0" result="BackgroundImageFix"/>
<feBlend mode="normal" in="SourceGraphic" in2="BackgroundImageFix" result="shape"/>
<feGaussianBlur stdDeviation="89.5087" result="effect1_foregroundBlur_6_38"/>
</filter>
<filter id="filter1_f_6_38" x="34.1811" y="0.991684" width="598.722" height="665.906" filterUnits="userSpaceOnUse" color-interpolation-filters="sRGB">
<feFlood flood-opacity="0" result="BackgroundImageFix"/>
<feBlend mode="normal" in="SourceGraphic" in2="BackgroundImageFix" result="shape"/>
<feGaussianBlur stdDeviation="89.5087" result="effect1_foregroundBlur_6_38"/>
</filter>
<filter id="filter2_f_6_38" x="13.5949" y="9.51881" width="639.895" height="648.852" filterUnits="userSpaceOnUse" color-interpolation-filters="sRGB">
<feFlood flood-opacity="0" result="BackgroundImageFix"/>
<feBlend mode="normal" in="SourceGraphic" in2="BackgroundImageFix" result="shape"/>
<feGaussianBlur stdDeviation="89.5087" result="effect1_foregroundBlur_6_38"/>
</filter>
<filter id="filter3_f_6_38" x="0.58905" y="34.5838" width="665.906" height="598.722" filterUnits="userSpaceOnUse" color-interpolation-filters="sRGB">
<feFlood flood-opacity="0" result="BackgroundImageFix"/>
<feBlend mode="normal" in="SourceGraphic" in2="BackgroundImageFix" result="shape"/>
<feGaussianBlur stdDeviation="89.5087" result="effect1_foregroundBlur_6_38"/>
</filter>
<filter id="filter4_f_6_38" x="34.1811" y="0.991684" width="598.722" height="665.906" filterUnits="userSpaceOnUse" color-interpolation-filters="sRGB">
<feFlood flood-opacity="0" result="BackgroundImageFix"/>
<feBlend mode="normal" in="SourceGraphic" in2="BackgroundImageFix" result="shape"/>
<feGaussianBlur stdDeviation="89.5087" result="effect1_foregroundBlur_6_38"/>
</filter>
<filter id="filter5_f_6_38" x="13.5949" y="9.51881" width="639.895" height="648.852" filterUnits="userSpaceOnUse" color-interpolation-filters="sRGB">
<feFlood flood-opacity="0" result="BackgroundImageFix"/>
<feBlend mode="normal" in="SourceGraphic" in2="BackgroundImageFix" result="shape"/>
<feGaussianBlur stdDeviation="89.5087" result="effect1_foregroundBlur_6_38"/>
</filter>
</defs>
</svg>
