<svg width="512" height="512" viewBox="0 0 512 512" fill="none" xmlns="http://www.w3.org/2000/svg">
<path d="M0 256C0 45.184 45.184 3.05176e-05 256 3.05176e-05C466.816 3.05176e-05 512 45.184 512 256C512 466.816 466.816 512 256 512C45.184 512 0 466.816 0 256Z" fill="white"/>
<mask id="mask0_6_38" style="mask-type:alpha" maskUnits="userSpaceOnUse" x="111" y="79" width="290" height="353">
<path d="M256 127.667L160 255.667H352L256 383.667" stroke="white" stroke-opacity="0.8" stroke-width="96" stroke-linecap="round" stroke-linejoin="round"/>
</mask>
<g mask="url(#mask0_6_38)">
<g filter="url(#filter0_f_6_38)">
<path d="M249.774 250.968C188.471 325.391 283.498 376.289 218.783 376.289C154.068 376.289 101.606 323.827 101.606 259.112C101.606 194.397 154.068 141.935 218.783 141.935C283.498 141.935 187.792 166.818 249.774 250.968Z" fill="#3A6BDC"/>
<path d="M409.478 252.778C409.478 317.493 357.016 369.955 292.301 369.955C227.586 369.955 350.982 316.343 250 252.778C326.099 184.01 227.586 135.601 292.301 135.601C357.016 135.601 409.478 188.063 409.478 252.778Z" fill="#BB2649"/>
</g>
<g filter="url(#filter1_f_6_38)">
<path d="M250.565 261.713C324.988 323.016 375.886 227.989 375.886 292.704C375.886 357.419 323.424 409.881 258.709 409.881C193.994 409.881 141.532 357.419 141.532 292.704C141.532 227.989 166.415 323.695 250.565 261.713Z" fill="#3A6BDC"/>
<path d="M252.375 102.009C317.09 102.009 369.552 154.471 369.552 219.186C369.552 283.901 315.94 160.505 252.375 261.487C183.607 185.388 135.198 283.901 135.198 219.186C135.198 154.471 187.66 102.009 252.375 102.009Z" fill="#BB2649"/>
</g>
<g filter="url(#filter2_f_6_38)">
<path d="M247.945 256.505C257.222 352.477 360.406 321.273 314.646 367.033C268.885 412.794 194.693 412.794 148.933 367.033C103.172 321.273 103.172 247.081 148.933 201.32C194.693 155.56 144.614 240.829 247.945 256.505Z" fill="#3A6BDC"/>
<path d="M362.152 144.856C407.912 190.617 407.912 264.809 362.152 310.569C316.392 356.33 365.736 231.167 249.384 257.624C254.568 155.188 150.679 190.617 196.439 144.856C242.199 99.0961 316.392 99.0961 362.152 144.856Z" fill="#BB2649"/>
</g>
</g>
<defs>
<filter id="filter0_f_6_38" x="-77.4109" y="-43.4162" width="665.906" height="598.722" filterUnits="userSpaceOnUse" color-interpolation-filters="sRGB">
<feFlood flood-opacity="0" result="BackgroundImageFix"/>
<feBlend mode="normal" in="SourceGraphic" in2="BackgroundImageFix" result="shape"/>
<feGaussianBlur stdDeviation="89.5087" result="effect1_foregroundBlur_6_38"/>
</filter>
<filter id="filter1_f_6_38" x="-43.8189" y="-77.0083" width="598.722" height="665.906" filterUnits="userSpaceOnUse" color-interpolation-filters="sRGB">
<feFlood flood-opacity="0" result="BackgroundImageFix"/>
<feBlend mode="normal" in="SourceGraphic" in2="BackgroundImageFix" result="shape"/>
<feGaussianBlur stdDeviation="89.5087" result="effect1_foregroundBlur_6_38"/>
</filter>
<filter id="filter2_f_6_38" x="-64.4051" y="-68.4812" width="639.895" height="648.852" filterUnits="userSpaceOnUse" color-interpolation-filters="sRGB">
<feFlood flood-opacity="0" result="BackgroundImageFix"/>
<feBlend mode="normal" in="SourceGraphic" in2="BackgroundImageFix" result="shape"/>
<feGaussianBlur stdDeviation="89.5087" result="effect1_foregroundBlur_6_38"/>
</filter>
</defs>
</svg>
